<?xml version="1.0" encoding="utf-8"?>
<!-- Generator: Adobe Illustrator 16.0.0, SVG Export Plug-In . SVG Version: 6.00 Build 0)  -->
<!DOCTYPE svg PUBLIC "-//W3C//DTD SVG 1.1//EN" "http://www.w3.org/Graphics/SVG/1.1/DTD/svg11.dtd">
<svg version="1.1" id="Layer_1" xmlns="http://www.w3.org/2000/svg" xmlns:xlink="http://www.w3.org/1999/xlink" x="0px" y="0px"
	 width="260px" height="260px" viewBox="-60 -60 260 260" enable-background="new -60 -60 260 260" xml:space="preserve">
<g>
	<g>
		<rect x="-60" y="-60" fill="#008065" width="260" height="260"/>
		<g>
			<path fill="#FFFFFF" d="M94.896,121.098h-7.916V68.393c0-3.985-3.212-7.199-7.179-7.199H60.205c-3.962,0-7.178,3.214-7.178,7.199
				v52.705h-7.924c-1.812,0-3.469,1.065-4.229,2.703c-0.781,1.655-0.498,3.593,0.672,4.985l21.204,24.94
				c1.813,2.124,4.461,3.35,7.249,3.35c2.801,0,5.446-1.226,7.26-3.35l21.195-24.94c1.179-1.393,1.439-3.33,0.683-4.985
				C98.374,122.163,96.717,121.098,94.896,121.098L94.896,121.098z M94.896,121.098"/>
			<path fill="#FFFFFF" d="M129.124,23.113c-1.399-0.107-2.678-0.828-3.511-1.959c-8.033-10.875-20.94-17.595-34.686-17.595
				c-0.866,0-1.737,0.026-2.621,0.085c-1.153,0.066-2.308-0.283-3.233-0.985c-8.348-6.314-18.485-9.735-29.096-9.735
				c-19,0-35.858,11.022-43.722,27.702c-0.7,1.493-2.104,2.526-3.73,2.75c-20.955,2.913-37.136,20.941-37.136,42.681
				c0,23.746,19.322,43.08,43.088,43.08h30.567V92.158H14.477c-14.401,0-26.113-11.711-26.113-26.113
				c0-14.392,11.711-26.103,26.113-26.103c0.72,0,1.444,0.056,2.155,0.116c4.149,0.319,7.903-2.368,8.915-6.392
				c3.509-13.993,16.03-23.767,30.431-23.767c8.235,0,16.034,3.175,21.945,8.957c2.02,1.967,4.891,2.806,7.66,2.23
				c1.754-0.369,3.554-0.555,5.346-0.555c10.087,0,19.091,5.671,23.498,14.792c1.546,3.206,4.94,5.117,8.484,4.756
				c0.889-0.089,1.762-0.136,2.623-0.136c14.389,0,26.104,11.711,26.104,26.115c0,14.391-11.715,26.102-26.104,26.102H94.965v16.979
				h30.568c23.752,0,43.078-19.334,43.078-43.08C168.611,43.506,151.208,24.954,129.124,23.113L129.124,23.113z M129.124,23.113"/>
		</g>
	</g>
</g>
</svg>
