<?xml version="1.0" encoding="utf-8"?>
<!-- Generator: Adobe Illustrator 16.0.0, SVG Export Plug-In . SVG Version: 6.00 Build 0)  -->
<!DOCTYPE svg PUBLIC "-//W3C//DTD SVG 1.1//EN" "http://www.w3.org/Graphics/SVG/1.1/DTD/svg11.dtd">
<svg version="1.1" id="Calque_1" xmlns="http://www.w3.org/2000/svg" xmlns:xlink="http://www.w3.org/1999/xlink" x="0px" y="0px"
	 width="380px" height="45px" viewBox="0 0 380 45" enable-background="new 0 0 380 45" xml:space="preserve">
<g>
	<g>
		<path fill="#088065" d="M37.067,34.769h-2.106V20.741c0-1.06-0.855-1.916-1.911-1.916h-5.215c-1.055,0-1.911,0.856-1.911,1.916
			v14.028h-2.108c-0.482,0-0.924,0.281-1.126,0.717c-0.208,0.441-0.133,0.957,0.179,1.328l5.643,6.637
			c0.482,0.564,1.187,0.891,1.929,0.891c0.744,0,1.449-0.326,1.932-0.891l5.639-6.637c0.314-0.371,0.384-0.887,0.182-1.328
			C37.993,35.05,37.551,34.769,37.067,34.769"/>
		<path fill="#088065" d="M46.177,8.691c-0.373-0.029-0.713-0.22-0.936-0.521c-2.137-2.894-5.573-4.683-9.229-4.683
			c-0.231,0-0.464,0.007-0.698,0.023c-0.308,0.018-0.614-0.075-0.861-0.262c-2.222-1.681-4.919-2.59-7.743-2.59
			c-5.056,0-9.542,2.933-11.635,7.372c-0.188,0.397-0.561,0.672-0.993,0.731C8.506,9.537,4.199,14.334,4.199,20.12
			c0,6.319,5.143,11.464,11.467,11.464H23.8v-4.518h-8.135c-3.832,0-6.949-3.115-6.949-6.949c0-3.83,3.117-6.947,6.949-6.947
			c0.192,0,0.384,0.015,0.574,0.032c1.104,0.084,2.103-0.631,2.372-1.703c0.934-3.723,4.267-6.324,8.099-6.324
			c2.192,0,4.266,0.845,5.84,2.383c0.536,0.523,1.301,0.747,2.038,0.593c0.467-0.098,0.946-0.148,1.424-0.148
			c2.684,0,5.08,1.51,6.252,3.937c0.412,0.853,1.314,1.361,2.258,1.266c0.236-0.024,0.47-0.037,0.698-0.037
			c3.831,0,6.947,3.117,6.947,6.95c0,3.831-3.117,6.946-6.947,6.946h-8.135v4.518h8.135c6.322,0,11.464-5.145,11.464-11.464
			C56.684,14.119,52.054,9.182,46.177,8.691"/>
	</g>
	<path fill="#36383A" d="M76.072,2.985h3.84c0.326,0,0.646,0.006,0.96,0.019c0.314,0.013,0.57,0.082,0.772,0.207
		c0.075,0.051,0.131,0.132,0.169,0.245s0.069,0.232,0.094,0.357v0.188c0.025,0.101,0.038,0.213,0.038,0.339c0,0.126,0,0.251,0,0.376
		v1.469c0,0.176,0.006,0.345,0.019,0.508c0.012,0.164-0.006,0.32-0.057,0.471c-0.126,0.427-0.376,0.653-0.753,0.678
		C80.779,7.868,80.327,7.88,79.8,7.88h-3.84c-0.502,0-0.935,0.019-1.299,0.057c-0.364,0.038-0.609,0.27-0.734,0.697
		c-0.025,0.125-0.025,0.239,0,0.339c0.025,0.101,0.013,0.213-0.038,0.338c-0.025,0.151-0.032,0.32-0.02,0.508
		c0.013,0.188,0.02,0.358,0.02,0.509v3.351v10.845v3.537c0,0.402-0.02,0.748-0.057,1.037c-0.038,0.287-0.195,0.496-0.471,0.621
		c-0.176,0.051-0.376,0.074-0.603,0.074s-0.439,0-0.64,0h-2.561c-0.276,0-0.534-0.012-0.772-0.037
		c-0.239-0.025-0.42-0.113-0.546-0.264c-0.126-0.199-0.188-0.457-0.188-0.771c0-0.312,0-0.635,0-0.959v-3.768V13.528v-3.2
		c0-0.176,0.006-0.357,0.019-0.546c0.012-0.188-0.007-0.358-0.057-0.508c-0.025-0.125-0.025-0.238,0-0.339
		c0.025-0.1,0.013-0.201-0.038-0.301c-0.125-0.427-0.383-0.659-0.771-0.697c-0.39-0.038-0.848-0.057-1.375-0.057h-3.501
		c-0.276,0-0.583,0.007-0.922,0.019c-0.339,0.013-0.609-0.006-0.809-0.057c-0.202-0.075-0.352-0.188-0.452-0.339
		c-0.076-0.125-0.12-0.288-0.131-0.489c-0.013-0.201-0.02-0.401-0.02-0.603V4.566c0-0.326,0.02-0.614,0.057-0.866
		c0.038-0.251,0.157-0.439,0.358-0.564c0.075-0.05,0.213-0.1,0.414-0.151h0.188H76.072z"/>
	<path fill="#36383A" d="M91.509,9.913c0.276,0,0.521,0.025,0.734,0.076c0.213,0.051,0.382,0.163,0.508,0.339
		c0.15,0.201,0.226,0.546,0.226,1.035c0,0.49,0,0.923,0,1.299c0,0.276,0.006,0.59,0.019,0.941c0.012,0.352-0.032,0.628-0.132,0.829
		c-0.101,0.176-0.245,0.289-0.433,0.338c-0.188,0.051-0.401,0.076-0.64,0.076c-0.239,0-0.49-0.013-0.753-0.038
		c-0.264-0.025-0.509-0.012-0.734,0.038c-0.176,0.05-0.352,0.082-0.527,0.094c-0.176,0.013-0.339,0.044-0.49,0.094
		c-0.401,0.126-0.803,0.308-1.204,0.546c-0.402,0.239-0.716,0.509-0.942,0.81c-0.126,0.201-0.257,0.408-0.395,0.621
		c-0.139,0.214-0.27,0.433-0.396,0.66c-0.075,0.201-0.145,0.408-0.207,0.621c-0.063,0.213-0.12,0.421-0.17,0.621
		c-0.05,0.176-0.075,0.357-0.075,0.546s-0.025,0.371-0.075,0.546c-0.025,0.101-0.032,0.195-0.019,0.283
		c0.012,0.088,0.006,0.169-0.019,0.245v0.602c-0.05,0.176-0.062,0.371-0.037,0.584c0.024,0.213,0.037,0.42,0.037,0.621v2.409v3.201
		c0,0.326-0.013,0.627-0.037,0.904c-0.025,0.275-0.101,0.502-0.227,0.678c-0.05,0.074-0.131,0.131-0.245,0.168
		c-0.113,0.039-0.232,0.07-0.357,0.094h-0.188c-0.125,0.025-0.264,0.039-0.414,0.039s-0.289,0-0.414,0h-1.619
		c-0.151-0.025-0.308-0.039-0.471-0.039c-0.164,0-0.333,0-0.508,0c-0.126-0.049-0.251-0.094-0.376-0.131
		c-0.126-0.037-0.213-0.119-0.264-0.244c-0.101-0.125-0.157-0.309-0.169-0.547s-0.019-0.482-0.019-0.734v-2.561V14.958v-2.786
		c0-0.25,0-0.496,0-0.734s0.05-0.434,0.15-0.583c0.125-0.201,0.313-0.327,0.565-0.377c0.25-0.05,0.552-0.075,0.903-0.075h1.92
		c0.301,0,0.565,0.019,0.791,0.056c0.227,0.038,0.401,0.157,0.527,0.358c0.076,0.126,0.119,0.301,0.132,0.527
		c0.012,0.227,0.031,0.446,0.056,0.659c0.025,0.214,0.069,0.408,0.132,0.584s0.182,0.263,0.358,0.263
		c0.05-0.05,0.1-0.075,0.15-0.075s0.1-0.025,0.151-0.075c0.15-0.125,0.282-0.27,0.395-0.433c0.113-0.163,0.257-0.307,0.433-0.433
		c0.101-0.076,0.188-0.157,0.264-0.245c0.075-0.087,0.163-0.169,0.264-0.245c0.226-0.15,0.458-0.301,0.697-0.452
		c0.238-0.15,0.483-0.288,0.734-0.414c0.25-0.1,0.509-0.188,0.772-0.264c0.264-0.075,0.533-0.15,0.81-0.226
		c0.076-0.025,0.219-0.031,0.433-0.019C91.327,9.983,91.459,9.964,91.509,9.913z"/>
	<path fill="#36383A" d="M113.31,19.326c0.051,0.151,0.076,0.364,0.076,0.64c0,0.276-0.025,0.49-0.076,0.64v0.377
		c-0.05,0.201-0.069,0.401-0.056,0.602c0.012,0.202-0.007,0.402-0.057,0.603c-0.051,0.175-0.089,0.339-0.113,0.489
		c-0.025,0.151-0.051,0.314-0.075,0.49c-0.101,0.276-0.188,0.559-0.264,0.846c-0.075,0.289-0.176,0.559-0.301,0.811
		c-0.527,1.205-1.219,2.184-2.071,2.938c-0.854,0.752-1.883,1.379-3.087,1.881c-0.301,0.127-0.609,0.221-0.922,0.283
		c-0.314,0.062-0.635,0.131-0.96,0.207c-0.126,0.051-0.263,0.074-0.414,0.074c-0.15,0-0.289,0.014-0.414,0.039
		c-0.075,0-0.157,0.006-0.245,0.018c-0.088,0.014-0.169,0.02-0.245,0.02c-0.125,0.025-0.327,0.045-0.602,0.057
		c-0.276,0.012-0.49-0.008-0.64-0.057h-0.376c-0.126-0.025-0.258-0.031-0.395-0.02c-0.139,0.014-0.27-0.006-0.396-0.057
		c-0.101-0.023-0.195-0.037-0.283-0.037s-0.195-0.012-0.32-0.037c-0.251-0.076-0.502-0.139-0.753-0.188
		c-0.251-0.051-0.489-0.127-0.715-0.227c-0.301-0.102-0.583-0.201-0.847-0.301c-0.264-0.1-0.534-0.227-0.81-0.377
		c-0.879-0.527-1.632-1.143-2.259-1.846c-0.628-0.701-1.155-1.543-1.582-2.521c-0.126-0.227-0.22-0.465-0.282-0.717
		c-0.063-0.25-0.132-0.514-0.207-0.79c-0.051-0.126-0.075-0.238-0.075-0.339s-0.026-0.213-0.076-0.339
		c-0.05-0.201-0.075-0.408-0.075-0.622c0-0.213-0.025-0.42-0.075-0.621c-0.025-0.125-0.038-0.238-0.038-0.339c0-0.1,0-0.213,0-0.339
		c-0.051-0.151-0.069-0.364-0.057-0.64c0.012-0.276,0.043-0.489,0.094-0.64v-0.264c0.025-0.125,0.031-0.257,0.019-0.395
		c-0.013-0.138,0.006-0.27,0.057-0.396c0.025-0.125,0.038-0.245,0.038-0.358c0-0.113,0.024-0.231,0.075-0.357
		c0.1-0.326,0.188-0.646,0.264-0.96c0.075-0.313,0.175-0.621,0.301-0.922c0.452-1.029,0.991-1.889,1.619-2.58
		c0.627-0.69,1.393-1.324,2.296-1.901c0.251-0.125,0.514-0.238,0.791-0.339c0.276-0.1,0.552-0.213,0.828-0.339
		c0.326-0.125,0.665-0.213,1.017-0.264c0.351-0.05,0.715-0.125,1.092-0.226c0.2-0.025,0.389-0.038,0.564-0.038
		s0.352-0.013,0.527-0.038c1.456-0.025,2.717,0.126,3.784,0.452c1.067,0.326,2.015,0.778,2.843,1.355
		c0.276,0.202,0.559,0.421,0.847,0.66c0.289,0.238,0.533,0.495,0.734,0.771c0.201,0.251,0.382,0.502,0.546,0.753
		c0.163,0.251,0.332,0.515,0.508,0.79c0.176,0.277,0.313,0.572,0.414,0.885c0.101,0.314,0.213,0.647,0.339,0.998
		c0.075,0.201,0.138,0.414,0.188,0.641c0.05,0.225,0.1,0.452,0.15,0.677c0.024,0.101,0.038,0.201,0.038,0.301
		c0,0.101,0.012,0.202,0.037,0.302c0.051,0.126,0.062,0.264,0.038,0.414C113.247,19.063,113.26,19.201,113.31,19.326z
		 M108.039,20.682c0.025-0.125,0.038-0.307,0.038-0.546c0-0.238-0.013-0.42-0.038-0.546v-0.301
		c-0.051-0.125-0.075-0.264-0.075-0.414c0-0.151-0.013-0.289-0.038-0.414c0-0.1-0.013-0.176-0.038-0.226
		c-0.05-0.201-0.094-0.408-0.132-0.621s-0.094-0.42-0.17-0.622c-0.276-0.652-0.602-1.21-0.979-1.675
		c-0.376-0.464-0.879-0.834-1.506-1.111c-0.15-0.05-0.301-0.094-0.452-0.132c-0.15-0.038-0.314-0.081-0.489-0.132
		c-0.201-0.05-0.414-0.068-0.64-0.057c-0.226,0.013-0.452,0.02-0.678,0.02c-0.075,0.05-0.164,0.069-0.264,0.056
		c-0.101-0.012-0.188-0.005-0.263,0.019c-0.176,0.051-0.346,0.094-0.508,0.132c-0.164,0.038-0.308,0.094-0.433,0.17
		c-0.628,0.276-1.136,0.672-1.525,1.186c-0.39,0.515-0.697,1.111-0.923,1.789c-0.075,0.251-0.132,0.515-0.169,0.791
		c-0.038,0.276-0.082,0.552-0.132,0.828c-0.025,0.126-0.038,0.251-0.038,0.376c0,0.125,0,0.251,0,0.376
		c-0.051,0.176-0.069,0.439-0.057,0.791c0.013,0.352,0.044,0.616,0.095,0.791v0.339c0.05,0.201,0.087,0.395,0.113,0.583
		c0.024,0.188,0.062,0.383,0.113,0.583c0.25,0.753,0.521,1.361,0.81,1.826c0.289,0.465,0.747,0.885,1.374,1.262
		c0.176,0.125,0.37,0.227,0.584,0.301c0.213,0.076,0.433,0.139,0.659,0.188c0.1,0.027,0.188,0.033,0.264,0.02
		c0.075-0.012,0.163-0.006,0.263,0.02c0.101,0.025,0.208,0.045,0.32,0.057c0.113,0.012,0.22,0.006,0.32-0.02h0.302
		c0.201-0.049,0.401-0.088,0.602-0.113c0.201-0.023,0.389-0.074,0.565-0.15c0.653-0.25,1.179-0.59,1.581-1.016
		c0.401-0.426,0.74-0.955,1.017-1.582c0.1-0.25,0.175-0.501,0.226-0.752c0.05-0.251,0.113-0.515,0.188-0.791
		c0.024-0.1,0.038-0.194,0.038-0.282s0.012-0.182,0.038-0.283c0-0.125,0-0.245,0-0.357
		C108.001,20.926,108.013,20.808,108.039,20.682z"/>
	<path fill="#36383A" d="M117.301,10.44h2.824c0.275,0,0.525,0.013,0.752,0.038c0.227,0.025,0.389,0.113,0.49,0.264
		c0.125,0.15,0.201,0.357,0.225,0.621c0.025,0.264,0.039,0.534,0.039,0.81v2.636v5.61c0,0.904,0.037,1.758,0.111,2.561
		c0.076,0.804,0.303,1.468,0.68,1.996c0.35,0.527,0.914,0.902,1.693,1.129c0.125,0.025,0.232,0.037,0.32,0.037
		s0.193,0.014,0.32,0.039c0.125,0.025,0.264,0.037,0.414,0.037s0.264-0.012,0.338-0.037c0.125-0.051,0.232-0.062,0.32-0.039
		c0.088,0.025,0.182,0.014,0.283-0.037c0.527-0.125,0.941-0.287,1.242-0.49c0.451-0.275,0.809-0.633,1.072-1.072
		c0.264-0.438,0.453-0.928,0.564-1.467c0.113-0.54,0.184-1.143,0.209-1.808c0.023-0.665,0.037-1.361,0.037-2.09V14.62v-2.448
		c0-0.226,0-0.458,0-0.696c0-0.238,0.049-0.433,0.15-0.584c0.125-0.226,0.312-0.357,0.564-0.395c0.25-0.038,0.553-0.057,0.904-0.057
		h1.994c0.252,0,0.49,0,0.717,0c0.225,0,0.414,0.051,0.564,0.15c0.201,0.126,0.312,0.314,0.338,0.565
		c0.025,0.251,0.039,0.54,0.039,0.866v2.862v10.581v2.672c0,0.252,0,0.504,0,0.754s-0.051,0.439-0.15,0.564
		c-0.127,0.201-0.314,0.314-0.566,0.338c-0.25,0.025-0.514,0.039-0.789,0.039h-2.035c-0.275,0-0.52-0.014-0.732-0.039
		c-0.215-0.023-0.383-0.125-0.508-0.301c-0.053-0.074-0.096-0.188-0.133-0.338s-0.076-0.301-0.113-0.453
		c-0.037-0.15-0.082-0.287-0.131-0.414c-0.051-0.125-0.127-0.201-0.227-0.227c-0.051-0.049-0.113-0.061-0.188-0.037
		c-0.076,0.025-0.139,0.051-0.189,0.076c-0.176,0.1-0.326,0.213-0.451,0.338c-0.127,0.127-0.264,0.24-0.414,0.34
		c-0.102,0.076-0.195,0.158-0.283,0.244c-0.088,0.088-0.195,0.17-0.32,0.246c-0.578,0.35-1.254,0.627-2.033,0.828
		c-0.176,0.049-0.352,0.08-0.525,0.094c-0.178,0.012-0.365,0.043-0.566,0.094c-0.1,0.025-0.207,0.031-0.32,0.02
		c-0.111-0.014-0.219-0.008-0.318,0.018c-0.076,0.025-0.234,0.031-0.471,0.02c-0.24-0.012-0.396-0.031-0.471-0.057
		c-0.127,0-0.252-0.006-0.377-0.02c-0.125-0.012-0.252-0.018-0.377-0.018c-0.301-0.076-0.59-0.139-0.865-0.189
		c-0.277-0.049-0.553-0.125-0.828-0.225c-0.127-0.051-0.232-0.094-0.32-0.133c-0.088-0.037-0.195-0.082-0.32-0.131
		c-0.879-0.477-1.582-1.143-2.109-1.996c-0.326-0.527-0.564-1.16-0.715-1.902c-0.15-0.74-0.244-1.529-0.281-2.372
		c-0.039-0.84-0.051-1.706-0.039-2.598c0.014-0.891,0.02-1.775,0.02-2.654v-5.121c0-0.326-0.006-0.708-0.02-1.148
		c-0.012-0.438,0.043-0.759,0.17-0.96c0.074-0.125,0.227-0.238,0.451-0.339C117.112,10.478,117.225,10.466,117.301,10.44z"/>
	<path fill="#36383A" d="M137.37,10.403h2.748c0.275,0,0.539,0.006,0.791,0.019c0.25,0.013,0.463,0.069,0.639,0.169
		c0.277,0.176,0.471,0.496,0.584,0.96c0.113,0.465,0.232,0.872,0.357,1.224c0.277,0.828,0.541,1.675,0.791,2.542
		c0.252,0.866,0.514,1.726,0.791,2.579c0.201,0.603,0.389,1.218,0.564,1.845c0.176,0.628,0.377,1.23,0.604,1.808
		c0.074,0.226,0.156,0.465,0.244,0.715c0.088,0.251,0.27,0.376,0.545,0.376c0.051-0.05,0.088-0.081,0.113-0.094
		c0.025-0.012,0.062-0.043,0.113-0.094c0.076-0.125,0.139-0.25,0.188-0.376c0.051-0.125,0.102-0.263,0.152-0.414
		c0.125-0.276,0.219-0.564,0.281-0.866c0.062-0.301,0.145-0.589,0.246-0.866c0.35-1.054,0.684-2.114,0.996-3.182
		c0.314-1.066,0.646-2.127,0.998-3.182c0.125-0.301,0.227-0.608,0.301-0.922c0.076-0.313,0.164-0.608,0.264-0.885
		c0.051-0.2,0.113-0.401,0.189-0.603c0.074-0.201,0.188-0.363,0.338-0.489c0.076-0.05,0.238-0.125,0.49-0.226
		c0.15-0.05,0.312-0.069,0.488-0.057c0.176,0.013,0.34,0.02,0.49,0.02h1.846c0.275,0,0.533,0.006,0.771,0.019
		c0.238,0.013,0.42,0.082,0.545,0.207c0.152,0.126,0.209,0.308,0.17,0.546c-0.037,0.238-0.082,0.433-0.131,0.583
		c-0.127,0.352-0.252,0.722-0.377,1.11c-0.127,0.39-0.252,0.76-0.377,1.111c-0.074,0.176-0.131,0.346-0.17,0.509
		c-0.037,0.163-0.08,0.32-0.131,0.47c-0.125,0.276-0.232,0.553-0.32,0.829c-0.088,0.276-0.182,0.552-0.281,0.828
		c-0.025,0.075-0.045,0.157-0.057,0.245c-0.014,0.088-0.045,0.169-0.096,0.244c-0.15,0.377-0.281,0.76-0.395,1.148
		c-0.113,0.39-0.232,0.772-0.357,1.148c-0.277,0.753-0.541,1.525-0.791,2.316c-0.252,0.791-0.527,1.562-0.828,2.315
		c-0.127,0.352-0.238,0.697-0.34,1.035c-0.1,0.34-0.213,0.684-0.338,1.035c-0.051,0.127-0.088,0.232-0.113,0.32
		s-0.062,0.195-0.113,0.32c-0.1,0.277-0.195,0.559-0.281,0.848c-0.09,0.287-0.184,0.57-0.283,0.846
		c-0.127,0.277-0.238,0.535-0.338,0.773c-0.102,0.238-0.289,0.406-0.566,0.508c-0.201,0.074-0.414,0.107-0.639,0.094
		c-0.227-0.012-0.453-0.02-0.678-0.02h-2.447c-0.277,0-0.547,0-0.811,0s-0.496-0.049-0.697-0.15
		c-0.176-0.125-0.301-0.281-0.375-0.471c-0.076-0.188-0.15-0.395-0.227-0.621c-0.125-0.301-0.238-0.615-0.338-0.941
		c-0.102-0.326-0.215-0.639-0.34-0.941c-0.051-0.1-0.082-0.193-0.094-0.281c-0.014-0.088-0.045-0.193-0.094-0.32
		c-0.127-0.301-0.24-0.615-0.34-0.941s-0.213-0.652-0.338-0.979c-0.051-0.125-0.09-0.246-0.113-0.357
		c-0.025-0.113-0.062-0.232-0.113-0.357c-0.1-0.227-0.188-0.458-0.264-0.698c-0.076-0.238-0.15-0.47-0.225-0.696
		c-0.051-0.075-0.076-0.156-0.076-0.244c0-0.088-0.025-0.17-0.076-0.245c-0.1-0.226-0.182-0.452-0.244-0.678
		c-0.062-0.225-0.145-0.464-0.244-0.715c-0.227-0.577-0.439-1.173-0.641-1.788c-0.201-0.615-0.402-1.224-0.602-1.826
		c-0.277-0.678-0.516-1.362-0.717-2.052s-0.426-1.375-0.678-2.053l-0.338-1.016c-0.025-0.076-0.045-0.169-0.057-0.282
		c-0.014-0.113,0.006-0.22,0.057-0.32c0.074-0.175,0.25-0.301,0.527-0.376C137.231,10.44,137.319,10.428,137.37,10.403z"/>
	<path fill="#36383A" d="M175.51,19.929c0.049,0.201,0.049,0.427,0,0.678c-0.051,0.251-0.139,0.414-0.264,0.49
		c-0.125,0.1-0.309,0.169-0.547,0.207c-0.238,0.038-0.502,0.063-0.791,0.076c-0.287,0.013-0.576,0.013-0.865,0
		c-0.289-0.012-0.547-0.019-0.771-0.019h-9.188c-0.176,0-0.346,0-0.508,0c-0.164,0-0.309,0.025-0.434,0.076
		c-0.201,0.1-0.326,0.201-0.377,0.301c-0.049,0.05-0.1,0.145-0.15,0.282c-0.051,0.139-0.062,0.27-0.037,0.396
		c0.051,0.151,0.08,0.295,0.094,0.433c0.012,0.138,0.045,0.283,0.094,0.433c0.201,0.603,0.445,1.099,0.734,1.488
		s0.684,0.734,1.188,1.035c0.199,0.125,0.406,0.207,0.621,0.244c0.213,0.039,0.432,0.094,0.658,0.17
		c0.201,0.051,0.477,0.088,0.828,0.113s0.652,0.014,0.904-0.039h0.338c0.25-0.049,0.484-0.105,0.697-0.168s0.42-0.133,0.621-0.207
		c0.25-0.125,0.533-0.289,0.848-0.49c0.312-0.201,0.545-0.4,0.697-0.602c0.125-0.176,0.256-0.346,0.395-0.51
		c0.137-0.162,0.307-0.281,0.508-0.357c0.25-0.125,0.57-0.182,0.961-0.168c0.389,0.012,0.746,0.018,1.072,0.018
		c0.15,0,0.307-0.006,0.471-0.018c0.162-0.014,0.307,0.006,0.434,0.057h0.377c0.25,0.049,0.426,0.111,0.525,0.188
		c0.102,0.051,0.158,0.164,0.17,0.338c0.014,0.178-0.006,0.328-0.057,0.453c-0.125,0.352-0.264,0.664-0.414,0.941
		c-0.15,0.275-0.326,0.553-0.527,0.828c-0.553,0.828-1.18,1.492-1.883,1.994c-0.703,0.504-1.58,0.93-2.635,1.281
		c-0.275,0.1-0.553,0.164-0.828,0.188c-0.277,0.025-0.564,0.076-0.865,0.15c-0.102,0.025-0.207,0.033-0.32,0.02
		c-0.113-0.012-0.221-0.006-0.32,0.02h-0.414c-0.127,0.049-0.271,0.068-0.434,0.057c-0.164-0.014-0.309-0.033-0.434-0.057
		c-0.201-0.025-0.375-0.025-0.527,0c-0.15,0.023-0.312,0.012-0.488-0.039c-0.127-0.049-0.264-0.074-0.414-0.074
		s-0.289-0.025-0.414-0.076c-0.277-0.049-0.553-0.105-0.828-0.168c-0.277-0.062-0.527-0.158-0.754-0.283
		c-0.277-0.1-0.533-0.195-0.771-0.283c-0.238-0.086-0.459-0.193-0.658-0.318c-0.805-0.502-1.52-1.086-2.146-1.752
		c-0.629-0.664-1.143-1.436-1.545-2.314c-0.125-0.275-0.225-0.559-0.301-0.848s-0.176-0.584-0.301-0.885
		c-0.025-0.1-0.039-0.193-0.039-0.282c0-0.087-0.012-0.182-0.037-0.282c-0.1-0.301-0.162-0.627-0.188-0.979
		c-0.025-0.351-0.051-0.703-0.076-1.054c0-0.125-0.006-0.264-0.018-0.414c-0.014-0.151-0.008-0.288,0.018-0.415v-0.452l0.113-0.903
		c0.1-0.427,0.188-0.841,0.264-1.243c0.076-0.401,0.188-0.778,0.34-1.129c1.078-2.61,2.91-4.456,5.496-5.535
		c0.352-0.15,0.709-0.257,1.074-0.32c0.363-0.062,0.746-0.144,1.148-0.244c0.199-0.025,0.389-0.038,0.564-0.038
		s0.363-0.012,0.564-0.038c1.279-0.024,2.377,0.12,3.295,0.433c0.914,0.314,1.736,0.722,2.467,1.224
		c0.225,0.151,0.451,0.32,0.676,0.508c0.227,0.188,0.428,0.383,0.604,0.583c0.074,0.126,0.176,0.226,0.301,0.301
		c0.201,0.276,0.389,0.559,0.564,0.848s0.363,0.583,0.564,0.884c0.127,0.227,0.232,0.458,0.32,0.697
		c0.088,0.239,0.182,0.496,0.283,0.772c0.125,0.327,0.225,0.665,0.301,1.017s0.164,0.703,0.264,1.054
		c0.051,0.202,0.068,0.421,0.057,0.659c-0.014,0.239,0.006,0.458,0.057,0.659V19.929z M169.862,17.707
		c0.176-0.25,0.193-0.558,0.057-0.922c-0.139-0.364-0.244-0.634-0.32-0.81c-0.352-0.678-0.816-1.198-1.393-1.562
		c-0.578-0.363-1.381-0.558-2.41-0.583c-0.074,0.051-0.164,0.063-0.264,0.038c-0.1-0.024-0.188-0.024-0.264,0
		c-0.125,0.051-0.264,0.082-0.414,0.094c-0.15,0.013-0.289,0.044-0.414,0.094c-1.105,0.352-1.92,1.042-2.447,2.071
		c-0.051,0.101-0.107,0.232-0.17,0.396c-0.062,0.163-0.105,0.327-0.131,0.489c-0.025,0.164-0.02,0.32,0.018,0.471
		c0.039,0.15,0.119,0.276,0.246,0.376c0.201,0.126,0.477,0.188,0.828,0.188s0.689,0,1.016,0h4.18c0.352,0,0.723-0.006,1.111-0.019
		C169.479,18.015,169.737,17.908,169.862,17.707z"/>
	<path fill="#36383A" d="M180.78,4.529c0.377,0,0.754,0.006,1.131,0.019c0.375,0.013,0.639,0.12,0.791,0.32
		c0.125,0.15,0.193,0.357,0.205,0.621c0.014,0.264,0.02,0.534,0.02,0.81v2.184c0,0.201-0.006,0.409-0.02,0.621
		c-0.012,0.214,0.006,0.396,0.057,0.546c0.102,0.352,0.326,0.578,0.678,0.678c0.125,0.025,0.246,0.038,0.359,0.038
		c0.111,0,0.23,0,0.357,0c0.275,0,0.615-0.006,1.016-0.019c0.402-0.013,0.691,0.019,0.865,0.094c0.227,0.15,0.377,0.301,0.453,0.452
		c0.049,0.101,0.076,0.214,0.076,0.339s0,0.251,0,0.376c0,0.277-0.014,0.534-0.039,0.772c-0.025,0.238-0.113,0.42-0.264,0.545
		c-0.15,0.126-0.357,0.195-0.621,0.207c-0.264,0.013-0.539,0.013-0.828,0c-0.289-0.012-0.57-0.019-0.848-0.019
		c-0.275,0-0.514,0.038-0.715,0.113c-0.176,0.075-0.301,0.201-0.377,0.376c-0.074,0.176-0.125,0.383-0.15,0.622
		s-0.031,0.489-0.02,0.753c0.014,0.264,0.02,0.521,0.02,0.772v7.455c0,0.553-0.006,1.137-0.02,1.75
		c-0.012,0.615,0.096,1.086,0.32,1.412c0.127,0.201,0.289,0.34,0.49,0.414c0.201,0.076,0.439,0.139,0.715,0.189
		c0.076,0.025,0.156,0.031,0.246,0.018c0.086-0.012,0.168-0.006,0.244,0.02h0.488c0.252,0,0.484,0.018,0.697,0.057
		c0.213,0.037,0.371,0.131,0.471,0.281c0.051,0.076,0.094,0.207,0.131,0.396c0.039,0.188,0.064,0.383,0.076,0.584
		c0.014,0.201,0.006,0.395-0.018,0.582c-0.027,0.189-0.076,0.334-0.152,0.434c-0.1,0.176-0.289,0.301-0.564,0.377
		c-0.201,0.051-0.426,0.068-0.678,0.057c-0.25-0.014-0.477-0.02-0.678-0.02c-0.15,0-0.301,0.006-0.451,0.02
		c-0.15,0.012-0.289,0.006-0.414-0.02h-0.451c-0.127-0.025-0.246-0.043-0.359-0.057c-0.113-0.012-0.232-0.02-0.357-0.02
		c-0.502-0.125-0.936-0.262-1.299-0.412c-0.363-0.152-0.672-0.414-0.922-0.791c-0.352-0.502-0.553-1.135-0.602-1.902
		c-0.051-0.766-0.076-1.588-0.076-2.467v-9.864c-0.076-0.326-0.145-0.565-0.207-0.715s-0.246-0.276-0.547-0.376
		c-0.1-0.025-0.201-0.025-0.301,0c-0.102,0.025-0.201,0.013-0.301-0.038h-0.604c-0.326,0-0.596-0.031-0.809-0.094
		c-0.215-0.062-0.357-0.208-0.434-0.433c-0.051-0.101-0.082-0.213-0.094-0.339c-0.014-0.126-0.02-0.251-0.02-0.376
		c0-0.352,0.025-0.646,0.076-0.885c0.051-0.238,0.201-0.42,0.451-0.546c0.277-0.1,0.635-0.125,1.074-0.075
		c0.439,0.051,0.809,0.025,1.109-0.075c0.227-0.125,0.402-0.301,0.527-0.527c0.051-0.15,0.076-0.339,0.076-0.564
		c0-0.226,0-0.439,0-0.64V6.224c0-0.201,0-0.408,0-0.622c0-0.213,0.025-0.395,0.076-0.546c0.098-0.201,0.287-0.363,0.564-0.49
		c0.074,0,0.143-0.006,0.205-0.019C180.674,4.535,180.729,4.529,180.78,4.529z"/>
	<path fill="#36383A" d="M207.588,19.251c0.051,0.15,0.074,0.383,0.074,0.697c0,0.314-0.012,0.533-0.037,0.659v0.377
		c-0.025,0.201-0.043,0.383-0.057,0.545c-0.012,0.164-0.031,0.346-0.057,0.546c-0.051,0.15-0.08,0.301-0.094,0.452
		c-0.012,0.15-0.043,0.301-0.094,0.452c-0.1,0.326-0.188,0.652-0.264,0.978c-0.074,0.328-0.176,0.629-0.301,0.904
		c-0.527,1.205-1.23,2.215-2.109,3.031s-1.957,1.438-3.238,1.863c-0.275,0.102-0.57,0.176-0.883,0.227
		c-0.314,0.051-0.635,0.1-0.961,0.15c-0.15,0.025-0.309,0.043-0.471,0.057c-0.164,0.012-0.32,0.018-0.471,0.018
		c-0.102,0.025-0.244,0.039-0.434,0.039c-0.188,0-0.32-0.014-0.395-0.039c-0.102-0.023-0.203-0.031-0.301-0.018
		c-0.102,0.012-0.189,0.006-0.264-0.02h-0.227l-0.904-0.113c-0.352-0.1-0.689-0.199-1.016-0.301c-0.326-0.1-0.641-0.213-0.941-0.338
		c-1.131-0.502-2.059-1.154-2.787-1.959c-0.729-0.803-1.33-1.781-1.807-2.936c-0.125-0.252-0.221-0.502-0.283-0.754
		c-0.062-0.25-0.119-0.514-0.168-0.791c-0.051-0.101-0.07-0.182-0.057-0.245c0.012-0.062,0.006-0.144-0.02-0.244
		c-0.051-0.201-0.082-0.408-0.094-0.622c-0.014-0.213-0.045-0.42-0.094-0.621c0-0.125,0-0.232,0-0.32
		c0-0.087-0.014-0.194-0.037-0.32c-0.025-0.125-0.039-0.345-0.039-0.659c0-0.313,0.025-0.546,0.076-0.697
		c0.049-0.175,0.062-0.351,0.037-0.527c-0.025-0.175-0.014-0.351,0.037-0.527c0.025-0.125,0.043-0.231,0.057-0.32
		c0.012-0.087,0.031-0.194,0.057-0.32c0.076-0.301,0.145-0.602,0.207-0.904c0.062-0.301,0.156-0.589,0.283-0.866
		c0.375-0.929,0.834-1.764,1.373-2.504c0.541-0.74,1.199-1.361,1.977-1.864c0.301-0.201,0.615-0.37,0.941-0.508
		c0.326-0.138,0.664-0.283,1.018-0.433c0.301-0.125,0.627-0.207,0.979-0.245c0.352-0.038,0.701-0.106,1.055-0.207
		c0.176,0,0.344-0.006,0.508-0.019c0.164-0.012,0.32-0.031,0.471-0.056c2.234-0.025,4.092,0.439,5.572,1.393
		c1.482,0.955,2.547,2.197,3.201,3.728c0.125,0.251,0.225,0.502,0.301,0.753c0.076,0.251,0.164,0.515,0.264,0.791
		c0.076,0.277,0.139,0.571,0.188,0.885c0.051,0.314,0.113,0.634,0.189,0.96c0.023,0.125,0.031,0.257,0.018,0.395
		C207.557,18.994,207.563,19.126,207.588,19.251z M204.239,21.397c0.049-0.175,0.068-0.376,0.055-0.603
		c-0.012-0.226-0.018-0.438-0.018-0.64c0-0.979-0.09-1.807-0.264-2.484c-0.076-0.201-0.139-0.401-0.189-0.603
		c-0.051-0.2-0.113-0.389-0.188-0.564c-0.703-1.631-1.82-2.761-3.352-3.389c-0.176-0.075-0.363-0.132-0.564-0.169
		s-0.402-0.081-0.604-0.132c-0.199-0.05-0.412-0.075-0.639-0.075s-0.451,0-0.678,0l-0.678,0.113
		c-0.252,0.051-0.484,0.107-0.697,0.17c-0.213,0.063-0.42,0.145-0.621,0.244c-0.176,0.051-0.338,0.126-0.49,0.226
		c-0.15,0.101-0.287,0.201-0.412,0.301c-0.604,0.427-1.094,0.941-1.469,1.544c-0.379,0.602-0.703,1.305-0.98,2.108
		c-0.074,0.251-0.125,0.509-0.15,0.772c-0.025,0.264-0.062,0.534-0.113,0.81c-0.023,0.101-0.037,0.264-0.037,0.49
		c-0.025,0.075-0.031,0.164-0.018,0.263c0.012,0.101,0.018,0.214,0.018,0.339c0,0.251,0,0.502,0,0.753
		c0,0.251,0.025,0.478,0.076,0.678L192.301,22c0.051,0.251,0.094,0.496,0.133,0.734c0.037,0.239,0.105,0.459,0.207,0.659
		c0.25,0.602,0.545,1.168,0.885,1.695c0.34,0.525,0.758,0.967,1.262,1.316c0.125,0.076,0.238,0.139,0.338,0.189
		s0.213,0.113,0.34,0.188c0.199,0.127,0.42,0.232,0.658,0.32s0.494,0.17,0.771,0.244c0.125,0.051,0.244,0.07,0.357,0.059
		c0.113-0.014,0.232-0.008,0.357,0.018c0.076,0.025,0.232,0.051,0.471,0.074c0.238,0.025,0.42,0.014,0.547-0.037
		c0.1-0.025,0.201-0.031,0.301-0.018c0.1,0.012,0.201-0.008,0.301-0.057c0.201-0.051,0.402-0.094,0.604-0.133
		c0.201-0.037,0.389-0.094,0.564-0.168c0.854-0.352,1.545-0.842,2.07-1.471c0.527-0.627,0.967-1.367,1.318-2.221
		c0.125-0.3,0.207-0.621,0.244-0.959C204.069,22.094,204.137,21.749,204.239,21.397z"/>
	<path fill="#36383A" d="M220.012,10.026c1.582-0.05,2.85,0.164,3.803,0.64c0.955,0.477,1.719,1.192,2.297,2.146
		c0.152,0.251,0.27,0.521,0.359,0.809c0.086,0.29,0.168,0.584,0.244,0.885c0.125,0.477,0.201,0.992,0.225,1.544
		c0.025,0.552,0.039,1.117,0.039,1.694v4.029v5.875c0,0.426-0.008,0.854-0.02,1.279c-0.014,0.428-0.182,0.703-0.508,0.828
		c-0.127,0.051-0.258,0.082-0.396,0.094c-0.139,0.014-0.281,0.02-0.434,0.02c-0.324,0-0.639-0.006-0.939-0.02
		c-0.301-0.012-0.516-0.119-0.641-0.318c-0.127-0.176-0.188-0.402-0.188-0.678c0-0.277,0-0.553,0-0.83v-3.236v-6.138
		c0-0.677-0.014-1.349-0.039-2.014c-0.025-0.665-0.137-1.236-0.338-1.713c-0.201-0.502-0.502-0.91-0.904-1.224
		c-0.402-0.313-0.865-0.559-1.393-0.734c-0.15-0.05-0.309-0.081-0.471-0.094c-0.164-0.012-0.32-0.043-0.471-0.094
		c-0.127-0.025-0.32-0.031-0.584-0.019s-0.445,0.032-0.545,0.056c-0.102,0.051-0.189,0.069-0.266,0.056
		c-0.074-0.012-0.162-0.005-0.262,0.019c-0.326,0.075-0.635,0.157-0.924,0.245c-0.287,0.088-0.559,0.208-0.809,0.358
		c-0.1,0.051-0.189,0.101-0.264,0.15c-0.076,0.051-0.164,0.101-0.264,0.151c-0.879,0.628-1.518,1.569-1.92,2.824
		c-0.076,0.201-0.125,0.408-0.15,0.622c-0.025,0.213-0.062,0.42-0.113,0.621c-0.051,0.126-0.062,0.245-0.037,0.357
		c0.023,0.113,0.012,0.221-0.037,0.32v0.791c-0.025,0.075-0.033,0.164-0.02,0.264c0.012,0.101,0.02,0.213,0.02,0.339v1.129v3.615
		v3.312c0,0.277,0,0.559,0,0.848s-0.064,0.521-0.189,0.697c-0.125,0.199-0.346,0.307-0.658,0.318
		c-0.314,0.014-0.635,0.02-0.961,0.02c-0.201,0-0.389-0.012-0.564-0.037s-0.326-0.088-0.451-0.189
		c-0.201-0.125-0.303-0.363-0.303-0.715s0-0.689,0-1.018v-4.441v-9.112V12.06c0-0.226,0-0.452,0-0.678
		c0-0.226,0.051-0.401,0.15-0.527c0.076-0.151,0.201-0.251,0.377-0.302c0.102-0.025,0.244-0.05,0.434-0.075
		c0.189-0.024,0.383-0.038,0.584-0.038c0.199,0,0.395,0.013,0.584,0.038c0.188,0.025,0.32,0.063,0.395,0.113
		c0.275,0.176,0.4,0.396,0.377,0.659c-0.025,0.264,0.012,0.559,0.113,0.885c0.049,0.151,0.15,0.276,0.301,0.376
		c0.301,0.025,0.545-0.088,0.734-0.339c0.188-0.25,0.383-0.452,0.584-0.602c0.35-0.251,0.707-0.483,1.072-0.697
		c0.363-0.213,0.783-0.396,1.262-0.546c0.199-0.076,0.42-0.125,0.658-0.151c0.238-0.025,0.471-0.062,0.697-0.113
		c0.125-0.024,0.25-0.038,0.375-0.038C219.762,10.026,219.887,10.026,220.012,10.026z"/>
	<path fill="#009EE0" d="M242.944,2.346c2.635-0.051,4.805,0.401,6.514,1.355c1.707,0.955,3.062,2.222,4.066,3.803
		c0.275,0.427,0.502,0.86,0.678,1.299c0.174,0.439,0.338,0.922,0.488,1.449c0.051,0.176,0.102,0.376,0.15,0.603
		c0.051,0.226,0.039,0.439-0.037,0.64c-0.051,0.15-0.145,0.244-0.281,0.282c-0.139,0.038-0.297,0.082-0.471,0.132h-0.303
		c-0.15,0.051-0.32,0.07-0.508,0.057c-0.188-0.012-0.371-0.019-0.545-0.019c-0.227,0-0.496,0.006-0.811,0.019
		c-0.314,0.013-0.621,0.013-0.922,0c-0.301-0.012-0.578-0.037-0.828-0.075c-0.252-0.038-0.439-0.094-0.564-0.17
		c-0.203-0.175-0.354-0.414-0.453-0.715c-0.1-0.301-0.225-0.564-0.377-0.791c-0.477-0.828-1.104-1.481-1.881-1.958
		c-0.527-0.326-1.117-0.59-1.77-0.791c-0.428-0.15-0.961-0.226-1.602-0.226s-1.199,0.063-1.676,0.188
		c-0.201,0.05-0.383,0.094-0.547,0.132c-0.162,0.038-0.332,0.094-0.506,0.169c-1.707,0.729-2.914,1.934-3.617,3.614
		c-0.125,0.301-0.236,0.616-0.338,0.942c-0.1,0.326-0.213,0.665-0.338,1.016c-0.025,0.176-0.051,0.339-0.076,0.49
		c-0.025,0.15-0.051,0.314-0.074,0.49c-0.051,0.15-0.07,0.308-0.057,0.47c0.012,0.164-0.008,0.333-0.057,0.508
		c-0.051,0.202-0.07,0.408-0.057,0.622c0.012,0.213,0.02,0.42,0.02,0.621c0,0.101-0.008,0.201-0.02,0.301
		c-0.014,0.101-0.006,0.201,0.02,0.301v0.339c0.049,0.126,0.068,0.251,0.057,0.376c-0.014,0.126,0.004,0.251,0.055,0.376
		c0,0.151,0.025,0.352,0.076,0.603c0.051,0.276,0.1,0.533,0.15,0.772c0.051,0.238,0.113,0.47,0.189,0.697
		c0.35,1.054,0.803,1.952,1.354,2.692c0.553,0.741,1.281,1.35,2.186,1.827c0.275,0.125,0.564,0.232,0.865,0.32
		c0.301,0.086,0.627,0.18,0.979,0.281c0.125,0.025,0.246,0.045,0.359,0.057c0.111,0.012,0.23,0.02,0.357,0.02h0.301
		c0.125,0.049,0.287,0.068,0.488,0.055c0.201-0.012,0.363-0.031,0.49-0.055c0.15,0,0.264-0.014,0.34-0.039
		c0.301-0.049,0.582-0.1,0.846-0.15s0.521-0.137,0.771-0.264c0.578-0.25,1.074-0.584,1.488-0.998s0.783-0.883,1.109-1.411
		c0.152-0.251,0.277-0.527,0.379-0.829c0.1-0.301,0.211-0.602,0.336-0.904c0.076-0.275,0.152-0.527,0.229-0.753
		c0.074-0.226,0.236-0.401,0.488-0.527c0.15-0.05,0.34-0.075,0.564-0.075c0.227,0,0.439,0,0.641,0h2.297c0.225,0,0.457,0,0.695,0
		c0.24,0,0.434,0.05,0.584,0.15c0.176,0.126,0.27,0.327,0.283,0.603c0.012,0.276-0.018,0.54-0.094,0.79l-0.227,1.017
		c-0.127,0.376-0.244,0.741-0.357,1.092c-0.113,0.352-0.258,0.69-0.434,1.016c-0.125,0.201-0.227,0.395-0.301,0.584
		c-0.076,0.188-0.176,0.371-0.301,0.545c-1.381,2.16-3.389,3.666-6.025,4.52c-0.275,0.1-0.551,0.176-0.828,0.225
		c-0.277,0.051-0.553,0.102-0.828,0.15c-0.125,0.051-0.244,0.07-0.357,0.057c-0.113-0.012-0.232,0.006-0.357,0.057
		c-0.176,0-0.346,0.008-0.508,0.02c-0.164,0.012-0.334,0.031-0.51,0.057h-0.602c-0.227,0-0.451,0-0.678,0s-0.439-0.025-0.641-0.076
		c-0.074-0.025-0.201-0.037-0.377-0.037c-0.176-0.025-0.35-0.051-0.525-0.076c-0.178-0.023-0.365-0.049-0.564-0.074
		c-0.252-0.076-0.498-0.139-0.736-0.188c-0.238-0.051-0.482-0.113-0.732-0.189c-0.227-0.076-0.453-0.156-0.678-0.244
		c-0.227-0.088-0.439-0.182-0.641-0.281c-1.506-0.654-2.781-1.527-3.822-2.619c-1.043-1.092-1.889-2.391-2.541-3.896
		c-0.15-0.376-0.277-0.753-0.377-1.13c-0.102-0.376-0.213-0.765-0.338-1.167c-0.051-0.125-0.076-0.232-0.076-0.32
		s-0.014-0.182-0.037-0.282c-0.051-0.226-0.088-0.464-0.113-0.715s-0.062-0.49-0.113-0.715c-0.051-0.126-0.07-0.232-0.057-0.32
		c0.014-0.087,0.006-0.182-0.02-0.282v-0.716c-0.049-0.125-0.074-0.313-0.074-0.564s0.025-0.439,0.074-0.565
		c0.025-0.075,0.033-0.156,0.02-0.244c-0.014-0.088-0.02-0.157-0.02-0.208v-0.339c0.051-0.2,0.082-0.414,0.096-0.64
		c0.012-0.226,0.031-0.452,0.057-0.678c0.049-0.201,0.088-0.396,0.113-0.584c0.023-0.188,0.061-0.382,0.111-0.583
		c0.102-0.352,0.189-0.697,0.264-1.036s0.176-0.659,0.303-0.96c0.125-0.326,0.256-0.652,0.395-0.979
		c0.137-0.326,0.295-0.627,0.471-0.903c0.4-0.703,0.816-1.331,1.242-1.883c0.125-0.175,0.264-0.339,0.414-0.49
		s0.301-0.301,0.451-0.452c0.627-0.627,1.287-1.161,1.979-1.6c0.689-0.439,1.473-0.834,2.352-1.186
		c0.303-0.125,0.615-0.232,0.941-0.32c0.326-0.087,0.664-0.169,1.018-0.245c0.15-0.05,0.301-0.075,0.451-0.075
		s0.289-0.025,0.414-0.075c0.201-0.025,0.395-0.043,0.584-0.057c0.188-0.012,0.383-0.031,0.584-0.056
		c0.049-0.025,0.113-0.025,0.189,0C242.831,2.371,242.893,2.371,242.944,2.346z"/>
	<path fill="#009EE0" d="M263.389,3.249c0.174,0.201,0.262,0.502,0.262,0.903c0,0.402,0,0.791,0,1.167c0,0.327,0,0.666,0,1.017
		c0,0.352-0.088,0.59-0.262,0.715c-0.152,0.126-0.346,0.201-0.584,0.226c-0.24,0.025-0.498,0.038-0.773,0.038h-2.107
		c-0.275,0-0.521-0.012-0.734-0.038c-0.213-0.025-0.395-0.1-0.547-0.226c-0.1-0.075-0.168-0.22-0.207-0.433
		c-0.037-0.213-0.062-0.452-0.074-0.715c-0.014-0.264-0.014-0.533,0-0.81c0.012-0.276,0.018-0.514,0.018-0.715
		c0-0.201,0.008-0.382,0.02-0.546c0.012-0.163,0.057-0.307,0.133-0.433c0.049-0.1,0.117-0.175,0.207-0.226
		c0.088-0.05,0.182-0.101,0.281-0.151c0.051,0,0.113-0.006,0.188-0.019c0.076-0.012,0.139-0.019,0.189-0.019h2.748
		c0.252,0,0.49,0.013,0.717,0.038C263.086,3.048,263.262,3.124,263.389,3.249z M263.651,27.761c0,0.502-0.012,0.928-0.037,1.279
		s-0.25,0.59-0.678,0.715c-0.15,0.051-0.314,0.07-0.488,0.057c-0.178-0.012-0.365-0.02-0.566-0.02h-2.107
		c-0.227,0-0.445-0.012-0.658-0.037c-0.215-0.025-0.371-0.1-0.473-0.225c-0.15-0.176-0.232-0.396-0.244-0.66s-0.02-0.545-0.02-0.848
		V12.135c0-0.25,0-0.501,0-0.753c0-0.25,0.051-0.452,0.152-0.603c0.15-0.175,0.363-0.288,0.639-0.339
		c0.051-0.024,0.119-0.031,0.207-0.019c0.088,0.013,0.158,0.006,0.209-0.019h1.881c0.15,0,0.32-0.006,0.508-0.02
		c0.189-0.012,0.346-0.006,0.473,0.02h0.301c0.15,0.05,0.287,0.088,0.414,0.112c0.125,0.025,0.227,0.101,0.301,0.226
		c0.1,0.126,0.156,0.301,0.17,0.527c0.012,0.227,0.018,0.465,0.018,0.715V27.761z"/>
	<path fill="#009EE0" d="M285.752,19.929c0.049,0.201,0.049,0.427,0,0.678c-0.051,0.251-0.139,0.414-0.264,0.49
		c-0.125,0.1-0.307,0.169-0.545,0.207c-0.24,0.038-0.504,0.063-0.791,0.076c-0.289,0.013-0.578,0.013-0.865,0
		c-0.289-0.012-0.547-0.019-0.773-0.019h-9.188c-0.174,0-0.344,0-0.508,0s-0.307,0.025-0.432,0.076
		c-0.201,0.1-0.328,0.201-0.377,0.301c-0.051,0.05-0.102,0.145-0.15,0.282c-0.051,0.139-0.064,0.27-0.039,0.396
		c0.051,0.151,0.082,0.295,0.096,0.433c0.012,0.138,0.043,0.283,0.094,0.433c0.201,0.603,0.445,1.099,0.734,1.488
		c0.287,0.389,0.684,0.734,1.186,1.035c0.199,0.125,0.408,0.207,0.621,0.244c0.213,0.039,0.434,0.094,0.658,0.17
		c0.201,0.051,0.477,0.088,0.828,0.113s0.652,0.014,0.904-0.039h0.338c0.252-0.049,0.484-0.105,0.697-0.168s0.42-0.133,0.621-0.207
		c0.252-0.125,0.533-0.289,0.848-0.49s0.547-0.4,0.697-0.602c0.125-0.176,0.256-0.346,0.395-0.51
		c0.137-0.162,0.307-0.281,0.508-0.357c0.252-0.125,0.57-0.182,0.961-0.168c0.389,0.012,0.746,0.018,1.074,0.018
		c0.15,0,0.307-0.006,0.469-0.018c0.164-0.014,0.309,0.006,0.434,0.057h0.377c0.25,0.049,0.426,0.111,0.527,0.188
		c0.1,0.051,0.156,0.164,0.17,0.338c0.012,0.178-0.008,0.328-0.059,0.453c-0.125,0.352-0.262,0.664-0.412,0.941
		c-0.152,0.275-0.328,0.553-0.529,0.828c-0.551,0.828-1.18,1.492-1.881,1.994c-0.703,0.504-1.582,0.93-2.637,1.281
		c-0.275,0.1-0.553,0.164-0.828,0.188c-0.275,0.025-0.564,0.076-0.865,0.15c-0.102,0.025-0.209,0.033-0.32,0.02
		c-0.113-0.012-0.221-0.006-0.32,0.02h-0.414c-0.127,0.049-0.27,0.068-0.434,0.057c-0.164-0.014-0.307-0.033-0.434-0.057
		c-0.201-0.025-0.375-0.025-0.525,0c-0.15,0.023-0.314,0.012-0.49-0.039c-0.125-0.049-0.264-0.074-0.414-0.074
		s-0.289-0.025-0.414-0.076c-0.275-0.049-0.553-0.105-0.828-0.168c-0.277-0.062-0.527-0.158-0.752-0.283
		c-0.277-0.1-0.535-0.195-0.773-0.283c-0.238-0.086-0.459-0.193-0.658-0.318c-0.805-0.502-1.52-1.086-2.146-1.752
		c-0.627-0.664-1.143-1.436-1.545-2.314c-0.125-0.275-0.225-0.559-0.301-0.848c-0.074-0.289-0.176-0.584-0.301-0.885
		c-0.025-0.1-0.037-0.193-0.037-0.282c0-0.087-0.014-0.182-0.039-0.282c-0.1-0.301-0.162-0.627-0.188-0.979
		c-0.025-0.351-0.051-0.703-0.074-1.054c0-0.125-0.008-0.264-0.02-0.414c-0.014-0.151-0.006-0.288,0.02-0.415v-0.452l0.111-0.903
		c0.102-0.427,0.189-0.841,0.264-1.243c0.076-0.401,0.189-0.778,0.34-1.129c1.078-2.61,2.912-4.456,5.498-5.535
		c0.35-0.15,0.709-0.257,1.072-0.32c0.363-0.062,0.746-0.144,1.148-0.244c0.199-0.025,0.389-0.038,0.564-0.038
		s0.363-0.012,0.564-0.038c1.279-0.024,2.377,0.12,3.295,0.433c0.916,0.314,1.738,0.722,2.465,1.224
		c0.227,0.151,0.453,0.32,0.68,0.508c0.225,0.188,0.426,0.383,0.602,0.583c0.076,0.126,0.176,0.226,0.301,0.301
		c0.201,0.276,0.391,0.559,0.564,0.848c0.176,0.289,0.363,0.583,0.566,0.884c0.125,0.227,0.23,0.458,0.32,0.697
		c0.086,0.239,0.182,0.496,0.281,0.772c0.125,0.327,0.227,0.665,0.303,1.017c0.074,0.352,0.162,0.703,0.262,1.054
		c0.051,0.202,0.07,0.421,0.057,0.659c-0.012,0.239,0.006,0.458,0.057,0.659V19.929z M280.104,17.707
		c0.176-0.25,0.195-0.558,0.057-0.922c-0.139-0.364-0.244-0.634-0.318-0.81c-0.354-0.678-0.816-1.198-1.395-1.562
		c-0.578-0.363-1.381-0.558-2.41-0.583c-0.074,0.051-0.164,0.063-0.264,0.038c-0.1-0.024-0.188-0.024-0.262,0
		c-0.127,0.051-0.264,0.082-0.416,0.094c-0.15,0.013-0.287,0.044-0.412,0.094c-1.105,0.352-1.922,1.042-2.449,2.071
		c-0.049,0.101-0.107,0.232-0.168,0.396c-0.064,0.163-0.107,0.327-0.133,0.489c-0.025,0.164-0.018,0.32,0.02,0.471
		c0.037,0.15,0.117,0.276,0.244,0.376c0.201,0.126,0.477,0.188,0.828,0.188s0.691,0,1.018,0h4.18c0.35,0,0.721-0.006,1.109-0.019
		C279.721,18.015,279.979,17.908,280.104,17.707z"/>
	<path fill="#009EE0" d="M289.592,2.985h2.75c0.25,0,0.488,0.013,0.715,0.038c0.225,0.025,0.4,0.101,0.527,0.226
		c0.15,0.176,0.23,0.408,0.244,0.696c0.012,0.289,0.02,0.583,0.02,0.885v3.352v13.517v5.76c0,0.303,0.006,0.646,0.018,1.035
		c0.014,0.391-0.043,0.686-0.168,0.887c-0.127,0.199-0.354,0.338-0.68,0.412c-0.15,0.051-0.318,0.064-0.508,0.039
		c-0.188-0.025-0.369-0.039-0.545-0.039h-1.809c-0.275,0-0.527-0.012-0.752-0.037c-0.227-0.025-0.414-0.1-0.564-0.225
		c-0.152-0.127-0.232-0.32-0.244-0.584c-0.014-0.264-0.02-0.533-0.02-0.811v-3.35v-14.12V5.545c0-0.326-0.006-0.715-0.02-1.167
		c-0.012-0.452,0.043-0.778,0.17-0.979c0.049-0.1,0.119-0.175,0.207-0.226c0.088-0.05,0.182-0.101,0.281-0.151
		c0.051,0,0.113-0.006,0.189-0.019C289.479,2.992,289.542,2.985,289.592,2.985z"/>
	<path fill="#36383A" d="M299.647,25.689c0.225,0,0.475-0.006,0.752-0.02c0.275-0.012,0.545-0.012,0.809,0
		c0.264,0.014,0.51,0.039,0.736,0.076c0.225,0.037,0.4,0.107,0.525,0.207c0.051,0.051,0.096,0.127,0.133,0.227
		s0.082,0.213,0.131,0.338v0.189c0.025,0.125,0.031,0.256,0.02,0.395c-0.014,0.139-0.02,0.27-0.02,0.395c0,0.354,0,0.748,0,1.188
		s-0.1,0.746-0.301,0.922c-0.176,0.125-0.395,0.188-0.658,0.188s-0.547,0-0.848,0c-0.352,0-0.723,0-1.111,0
		s-0.684-0.074-0.885-0.225c-0.1-0.076-0.176-0.207-0.227-0.396c-0.051-0.188-0.08-0.4-0.094-0.639
		c-0.012-0.238-0.012-0.477,0-0.717c0.014-0.238,0.02-0.445,0.02-0.621c0-0.174,0-0.338,0-0.488c0-0.152,0.023-0.289,0.074-0.416
		c0.102-0.275,0.277-0.451,0.527-0.525C299.307,25.765,299.444,25.74,299.647,25.689z"/>
	<path fill="#36383A" d="M315.573,9.951c1.857-0.025,3.408,0.244,4.65,0.81c1.242,0.564,2.227,1.412,2.955,2.541
		c0.326,0.503,0.602,1.118,0.828,1.845c0.051,0.126,0.088,0.29,0.113,0.49c0.025,0.201,0.012,0.376-0.037,0.527
		c-0.076,0.126-0.201,0.239-0.377,0.339c-0.076,0.051-0.15,0.069-0.227,0.056c-0.074-0.012-0.162-0.005-0.264,0.019
		c-0.1,0.025-0.201,0.032-0.301,0.019c-0.1-0.012-0.201-0.019-0.301-0.019c-0.277,0-0.541-0.006-0.791-0.019
		c-0.252-0.012-0.465-0.081-0.641-0.207c-0.199-0.15-0.338-0.364-0.414-0.64c-0.074-0.276-0.176-0.515-0.301-0.715
		c-0.377-0.653-0.865-1.167-1.469-1.544c-0.201-0.125-0.414-0.232-0.639-0.32c-0.227-0.087-0.465-0.169-0.717-0.245
		c-0.352-0.1-0.816-0.156-1.393-0.169c-0.578-0.012-1.055,0.044-1.432,0.169c-0.176,0.05-0.338,0.088-0.488,0.113
		c-0.15,0.025-0.314,0.063-0.49,0.113c-0.652,0.276-1.229,0.653-1.73,1.129c-0.504,0.477-0.893,1.042-1.168,1.694
		c-0.102,0.226-0.189,0.458-0.264,0.697c-0.076,0.239-0.15,0.496-0.227,0.772l-0.225,1.017c-0.025,0.125-0.033,0.264-0.02,0.414
		c0.012,0.15-0.006,0.289-0.057,0.414v0.301c-0.025,0.101-0.045,0.264-0.057,0.489c-0.014,0.227,0.006,0.39,0.057,0.49
		c0.025,0.126,0.025,0.251,0,0.376c-0.025,0.126-0.025,0.251,0,0.376c0.025,0.101,0.037,0.277,0.037,0.527
		c0.051,0.201,0.094,0.414,0.133,0.64c0.037,0.226,0.08,0.439,0.131,0.641c0.275,0.802,0.596,1.5,0.961,2.089
		c0.363,0.59,0.871,1.098,1.523,1.525c0.227,0.125,0.459,0.238,0.697,0.338c0.238,0.102,0.496,0.201,0.771,0.301
		c0.127,0.025,0.227,0.039,0.301,0.039c0.076,0,0.178,0.012,0.303,0.037c0.074,0.025,0.199,0.037,0.375,0.037h0.416
		c0,0.025,0.049,0.037,0.15,0.037c0.049-0.023,0.113-0.029,0.188-0.018c0.076,0.012,0.15,0.006,0.227-0.02
		c0.176-0.051,0.344-0.068,0.508-0.055c0.164,0.012,0.334-0.008,0.508-0.059c0.652-0.199,1.219-0.457,1.695-0.771
		c0.477-0.312,0.877-0.721,1.205-1.223c0.125-0.201,0.238-0.414,0.338-0.641s0.201-0.453,0.301-0.678
		c0.051-0.201,0.107-0.396,0.17-0.584c0.062-0.188,0.182-0.344,0.357-0.47c0.076-0.075,0.227-0.132,0.453-0.169
		c0.225-0.038,0.471-0.062,0.732-0.076c0.266-0.012,0.516-0.006,0.754,0.02s0.408,0.075,0.508,0.15
		c0.152,0.101,0.246,0.251,0.283,0.451c0.037,0.202,0.031,0.415-0.02,0.639c-0.125,0.377-0.244,0.736-0.357,1.074
		c-0.113,0.34-0.258,0.672-0.432,0.998c-0.379,0.752-0.848,1.418-1.412,1.994c-0.564,0.58-1.25,1.043-2.053,1.395
		c-0.201,0.1-0.414,0.182-0.641,0.244s-0.465,0.133-0.715,0.207c-0.277,0.102-0.553,0.156-0.828,0.17
		c-0.277,0.012-0.553,0.045-0.83,0.094c-0.1,0.051-0.199,0.062-0.299,0.037c-0.102-0.023-0.203-0.023-0.303,0h-0.338
		c-0.201,0-0.396,0.008-0.584,0.02c-0.188,0.014-0.357-0.006-0.508-0.057h-0.189l-0.902-0.113c-0.326-0.1-0.641-0.188-0.941-0.264
		c-0.303-0.074-0.59-0.176-0.865-0.301c-0.904-0.4-1.652-0.877-2.242-1.432c-0.59-0.551-1.137-1.229-1.637-2.031
		c-0.127-0.201-0.24-0.428-0.34-0.678c-0.1-0.252-0.201-0.502-0.301-0.754c-0.125-0.275-0.213-0.564-0.264-0.865
		s-0.113-0.602-0.189-0.904c-0.025-0.101-0.037-0.201-0.037-0.301s-0.012-0.201-0.037-0.302c-0.051-0.15-0.068-0.313-0.057-0.489
		c0.014-0.175-0.006-0.339-0.057-0.49V20.87c-0.025-0.125-0.037-0.301-0.037-0.527s0.012-0.401,0.037-0.527
		c0.025-0.125,0.031-0.238,0.02-0.339c-0.014-0.101-0.006-0.201,0.018-0.302c0.051-0.175,0.07-0.351,0.059-0.527
		c-0.014-0.175,0.004-0.339,0.055-0.49c0.1-0.426,0.189-0.853,0.264-1.28c0.076-0.426,0.189-0.828,0.34-1.205
		c0.527-1.305,1.166-2.359,1.92-3.163c0.754-0.803,1.781-1.468,3.088-1.996c0.275-0.125,0.576-0.213,0.902-0.264
		c0.326-0.05,0.666-0.113,1.018-0.188c0.176-0.024,0.352-0.043,0.527-0.057C315.184,9.995,315.372,9.977,315.573,9.951z"/>
	<path fill="#36383A" d="M345.243,19.251c0.049,0.15,0.074,0.383,0.074,0.697c0,0.314-0.014,0.533-0.037,0.659v0.377
		c-0.025,0.201-0.045,0.383-0.057,0.545c-0.014,0.164-0.033,0.346-0.057,0.546c-0.051,0.15-0.082,0.301-0.094,0.452
		c-0.014,0.15-0.045,0.301-0.096,0.452c-0.1,0.326-0.188,0.652-0.262,0.978c-0.076,0.328-0.178,0.629-0.303,0.904
		c-0.527,1.205-1.229,2.215-2.107,3.031s-1.959,1.438-3.238,1.863c-0.277,0.102-0.572,0.176-0.885,0.227
		c-0.314,0.051-0.635,0.1-0.961,0.15c-0.15,0.025-0.307,0.043-0.471,0.057c-0.164,0.012-0.32,0.018-0.471,0.018
		c-0.1,0.025-0.244,0.039-0.434,0.039c-0.188,0-0.318-0.014-0.395-0.039c-0.1-0.023-0.201-0.031-0.301-0.018
		c-0.102,0.012-0.189,0.006-0.264-0.02h-0.227l-0.902-0.113c-0.354-0.1-0.691-0.199-1.018-0.301c-0.326-0.1-0.641-0.213-0.941-0.338
		c-1.129-0.502-2.059-1.154-2.785-1.959c-0.729-0.803-1.33-1.781-1.809-2.936c-0.125-0.252-0.219-0.502-0.281-0.754
		c-0.062-0.25-0.119-0.514-0.17-0.791c-0.051-0.101-0.07-0.182-0.057-0.245c0.014-0.062,0.006-0.144-0.02-0.244
		c-0.051-0.201-0.08-0.408-0.094-0.622c-0.014-0.213-0.043-0.42-0.094-0.621c0-0.125,0-0.232,0-0.32c0-0.087-0.014-0.194-0.037-0.32
		c-0.025-0.125-0.037-0.345-0.037-0.659c0-0.313,0.023-0.546,0.074-0.697c0.051-0.175,0.062-0.351,0.037-0.527
		c-0.025-0.175-0.012-0.351,0.039-0.527c0.023-0.125,0.043-0.231,0.057-0.32c0.012-0.087,0.029-0.194,0.055-0.32
		c0.076-0.301,0.145-0.602,0.207-0.904c0.062-0.301,0.158-0.589,0.283-0.866c0.377-0.929,0.834-1.764,1.375-2.504
		c0.539-0.74,1.197-1.361,1.977-1.864c0.301-0.201,0.613-0.37,0.941-0.508c0.324-0.138,0.664-0.283,1.016-0.433
		c0.301-0.125,0.627-0.207,0.979-0.245c0.352-0.038,0.703-0.106,1.055-0.207c0.176,0,0.346-0.006,0.51-0.019
		c0.162-0.012,0.318-0.031,0.469-0.056c2.234-0.025,4.092,0.439,5.572,1.393c1.48,0.955,2.549,2.197,3.201,3.728
		c0.125,0.251,0.227,0.502,0.301,0.753c0.076,0.251,0.164,0.515,0.264,0.791c0.076,0.277,0.139,0.571,0.189,0.885
		c0.049,0.314,0.113,0.634,0.188,0.96c0.025,0.125,0.031,0.257,0.02,0.395C345.209,18.994,345.217,19.126,345.243,19.251z
		 M341.889,21.397c0.051-0.175,0.07-0.376,0.057-0.603c-0.012-0.226-0.018-0.438-0.018-0.64c0-0.979-0.09-1.807-0.264-2.484
		c-0.076-0.201-0.139-0.401-0.188-0.603c-0.051-0.2-0.113-0.389-0.189-0.564c-0.703-1.631-1.82-2.761-3.352-3.389
		c-0.176-0.075-0.363-0.132-0.564-0.169s-0.4-0.081-0.602-0.132c-0.201-0.05-0.414-0.075-0.641-0.075s-0.451,0-0.678,0l-0.678,0.113
		c-0.252,0.051-0.484,0.107-0.695,0.17c-0.215,0.063-0.422,0.145-0.623,0.244c-0.176,0.051-0.338,0.126-0.488,0.226
		c-0.15,0.101-0.289,0.201-0.414,0.301c-0.604,0.427-1.092,0.941-1.469,1.544c-0.377,0.602-0.703,1.305-0.979,2.108
		c-0.076,0.251-0.127,0.509-0.15,0.772c-0.025,0.264-0.062,0.534-0.113,0.81c-0.025,0.101-0.039,0.264-0.039,0.49
		c-0.023,0.075-0.031,0.164-0.018,0.263c0.012,0.101,0.018,0.214,0.018,0.339c0,0.251,0,0.502,0,0.753
		c0,0.251,0.025,0.478,0.076,0.678L329.956,22c0.049,0.251,0.094,0.496,0.131,0.734c0.037,0.239,0.105,0.459,0.207,0.659
		c0.25,0.602,0.545,1.168,0.885,1.695c0.338,0.525,0.758,0.967,1.262,1.316c0.125,0.076,0.238,0.139,0.338,0.189
		c0.102,0.051,0.213,0.113,0.34,0.188c0.201,0.127,0.42,0.232,0.658,0.32s0.496,0.17,0.773,0.244
		c0.125,0.051,0.244,0.07,0.357,0.059c0.113-0.014,0.23-0.008,0.357,0.018c0.074,0.025,0.232,0.051,0.471,0.074
		c0.238,0.025,0.42,0.014,0.545-0.037c0.1-0.025,0.201-0.031,0.301-0.018c0.102,0.012,0.201-0.008,0.303-0.057
		c0.201-0.051,0.4-0.094,0.602-0.133c0.201-0.037,0.389-0.094,0.564-0.168c0.854-0.352,1.543-0.842,2.07-1.471
		c0.529-0.627,0.967-1.367,1.318-2.221c0.127-0.3,0.207-0.621,0.246-0.959C341.721,22.094,341.79,21.749,341.889,21.397z"/>
	<path fill="#36383A" d="M357.667,9.951c0.953-0.025,1.762,0.075,2.428,0.301c0.666,0.226,1.273,0.553,1.826,0.979
		c0.201,0.125,0.371,0.295,0.51,0.508c0.137,0.214,0.295,0.408,0.469,0.584c0.051,0.05,0.125,0.112,0.227,0.188
		c0.1,0.076,0.227,0.101,0.377,0.076c0.25-0.076,0.471-0.232,0.658-0.471c0.189-0.238,0.383-0.42,0.584-0.545
		c0.352-0.276,0.715-0.521,1.092-0.735c0.377-0.213,0.791-0.395,1.242-0.545c0.201-0.076,0.422-0.132,0.66-0.17
		c0.236-0.038,0.471-0.081,0.695-0.131c0.125-0.025,0.246-0.038,0.357-0.038c0.113,0,0.232,0,0.357,0
		c0.127-0.05,0.303-0.069,0.527-0.057c0.227,0.013,0.391,0.032,0.49,0.057c0.125,0.025,0.314,0.038,0.564,0.038
		c0.227,0.051,0.445,0.094,0.66,0.131c0.213,0.038,0.42,0.094,0.621,0.17c0.125,0.05,0.244,0.082,0.357,0.094
		c0.113,0.013,0.23,0.044,0.357,0.094c1.256,0.552,2.121,1.406,2.598,2.561c0.102,0.201,0.176,0.42,0.227,0.659
		c0.051,0.239,0.1,0.496,0.15,0.772c0.049,0.076,0.068,0.157,0.057,0.245c-0.014,0.088-0.008,0.17,0.018,0.245v0.339
		c0.025,0.101,0.033,0.214,0.02,0.339c-0.012,0.126-0.02,0.251-0.02,0.376v1.468v2.41v7.153c0,0.402,0.008,0.879,0.02,1.432
		c0.014,0.551-0.094,0.916-0.32,1.092c-0.1,0.074-0.264,0.131-0.488,0.17c-0.227,0.037-0.467,0.055-0.717,0.055
		s-0.496-0.012-0.734-0.037s-0.406-0.076-0.508-0.15c-0.15-0.074-0.25-0.225-0.301-0.451c-0.051-0.15-0.062-0.307-0.037-0.471
		c0.023-0.164,0.012-0.32-0.037-0.471c-0.025-0.127-0.033-0.27-0.02-0.434c0.012-0.164,0.02-0.32,0.02-0.471v-1.695v-7.19
		c0-0.828-0.02-1.613-0.059-2.353c-0.037-0.74-0.219-1.362-0.545-1.864c-0.377-0.603-0.953-1.041-1.732-1.318
		c-0.15-0.05-0.309-0.081-0.471-0.094c-0.162-0.012-0.332-0.043-0.508-0.094c-0.102-0.025-0.264-0.031-0.49-0.019
		c-0.225,0.013-0.377,0.032-0.451,0.057c-0.127,0.025-0.252,0.032-0.377,0.019s-0.25,0.006-0.377,0.056
		c-0.352,0.075-0.689,0.176-1.016,0.301c-1.307,0.552-2.184,1.519-2.637,2.899c-0.125,0.427-0.193,0.917-0.207,1.468
		c-0.012,0.552-0.018,1.117-0.018,1.694v4.932v3.654c0,0.299,0,0.607,0,0.922s-0.064,0.559-0.189,0.734
		c-0.125,0.199-0.338,0.312-0.639,0.338s-0.615,0.037-0.941,0.037c-0.428,0-0.74-0.049-0.941-0.15
		c-0.227-0.125-0.357-0.332-0.395-0.621c-0.039-0.289-0.059-0.607-0.059-0.961v-3.576v-6.212c0-0.803-0.023-1.55-0.074-2.24
		c-0.051-0.69-0.225-1.286-0.527-1.789c-0.277-0.452-0.59-0.784-0.941-0.998c-0.352-0.212-0.828-0.382-1.43-0.508
		c-0.102-0.024-0.209-0.038-0.32-0.038c-0.113,0-0.232,0-0.359,0c-0.551,0-1.035,0.063-1.449,0.188
		c-0.414,0.126-0.785,0.289-1.109,0.49c-1.281,0.778-2.135,1.946-2.561,3.501c-0.102,0.327-0.145,0.697-0.133,1.111
		c0.014,0.414,0.02,0.823,0.02,1.224v4.255v4.141c0,0.326,0,0.666,0,1.018s-0.076,0.629-0.227,0.828
		c-0.125,0.176-0.312,0.275-0.564,0.301s-0.514,0.037-0.791,0.037h-0.564c-0.15-0.049-0.295-0.088-0.434-0.113
		c-0.139-0.023-0.256-0.1-0.357-0.225c-0.125-0.15-0.188-0.346-0.188-0.584s0-0.496,0-0.771v-2.447V14.884v-2.787
		c0-0.25,0-0.495,0-0.734c0-0.238,0.049-0.433,0.15-0.583c0.076-0.151,0.188-0.251,0.338-0.301c0.201-0.075,0.521-0.113,0.961-0.113
		s0.76,0.038,0.959,0.113c0.203,0.101,0.34,0.226,0.416,0.377c0.049,0.125,0.082,0.276,0.094,0.452
		c0.012,0.176,0.031,0.338,0.057,0.489c0.023,0.151,0.074,0.277,0.15,0.376c0.074,0.101,0.201,0.151,0.377,0.151
		c0.051-0.05,0.105-0.075,0.17-0.075c0.061,0,0.117-0.025,0.168-0.076c0.15-0.125,0.295-0.25,0.434-0.376
		c0.139-0.125,0.281-0.25,0.434-0.376c0.551-0.401,1.18-0.753,1.881-1.054c0.252-0.1,0.502-0.17,0.754-0.207
		c0.25-0.038,0.514-0.094,0.791-0.169c0.15,0,0.307-0.006,0.471-0.019C357.358,9.958,357.516,9.951,357.667,9.951z"/>
</g>
</svg>
